<svg width="65" height="28" viewBox="0 0 65 28" fill="none" xmlns="http://www.w3.org/2000/svg">
<path d="M38.7106 8.58567C38.9114 8.00264 38.9489 7.49186 39.028 6.9927C39.083 6.64471 39.2288 6.49604 39.6013 6.50684C40.4195 6.53009 41.2402 6.53009 42.0584 6.50684C42.4309 6.49604 42.6733 6.6173 42.8916 6.92128C44.4498 9.09313 46.0229 11.2542 47.5943 13.4169C47.6735 13.5257 47.721 13.6652 47.9059 13.7383C47.9768 13.3546 48.0501 12.9817 48.1126 12.608C48.4242 10.7534 48.74 8.89879 49.0374 7.04253C49.0974 6.6663 49.2349 6.49604 49.6507 6.50518C50.8305 6.53092 52.0104 6.51265 53.191 6.51514C53.6951 6.51597 53.7251 6.55584 53.6426 7.03589C52.9777 10.9353 52.3128 14.8346 51.6496 18.734C51.5054 19.5795 51.3588 20.4242 51.2313 21.2721C51.1905 21.5454 51.0688 21.6509 50.7955 21.6484C49.8657 21.6392 48.935 21.6351 48.0051 21.65C47.6835 21.655 47.5393 21.4557 47.381 21.2422C45.8546 19.1842 44.3289 17.1253 42.7958 15.0713C42.6858 14.9243 42.6092 14.6428 42.4084 14.6918C42.2142 14.74 42.2642 15.0248 42.2334 15.2059C41.8859 17.2374 41.5452 19.2697 41.2102 21.3029C41.171 21.5379 41.0594 21.6426 40.8261 21.6417C39.5346 21.6401 38.244 21.6401 36.9525 21.6417C36.6675 21.6417 36.5958 21.4931 36.64 21.2373C36.715 20.8054 36.78 20.3718 36.8525 19.9192C36.615 19.9483 36.5192 20.121 36.385 20.2273C35.0527 21.2821 33.5029 21.763 31.839 21.8809C30.605 21.969 29.3727 21.9258 28.1704 21.5446C27.2238 21.2447 26.3823 20.7937 25.7215 20.0429C25.5482 19.8461 25.3966 19.778 25.1683 19.9881C24.0918 20.979 22.7719 21.3975 21.3513 21.5637C19.9673 21.7256 18.5775 21.6235 17.1911 21.6392C15.6221 21.6567 14.0532 21.6442 12.4842 21.6426C11.9576 21.6426 11.9351 21.616 12.0235 21.0961C12.6242 17.5646 13.2283 14.0332 13.8282 10.5009C14.0273 9.32817 14.2256 8.15545 14.4015 6.97941C14.4556 6.61647 14.6148 6.50269 14.9764 6.50518C17.586 6.5193 20.1965 6.49521 22.8061 6.52594C24.0343 6.54006 25.1999 6.82576 26.1715 7.65132C26.4839 7.91709 26.7314 8.23353 26.8989 8.59896C27.0214 8.86556 27.1013 8.87221 27.2855 8.65544C28.1454 7.64634 29.2252 6.95948 30.495 6.59488C32.6414 5.97779 34.7686 5.97612 36.8375 6.91961C37.5965 7.26595 38.2156 7.78919 38.7106 8.58401V8.58567ZM32.8305 9.94942C32.4856 10.0076 32.044 10.0458 31.6382 10.2517C31.2549 10.4461 31.0308 10.7417 31.0616 11.1736C31.0916 11.5889 31.4382 11.6877 31.764 11.7691C32.8389 12.0366 33.9204 12.2791 34.9919 12.5581C35.9384 12.8048 36.8383 13.1603 37.5441 13.8754C37.774 14.1087 37.8673 14.0008 37.9082 13.7475C37.9907 13.23 38.0465 12.7068 38.1515 12.1935C38.2256 11.8322 38.0748 11.7616 37.7615 11.7658C36.875 11.7758 35.9876 11.7641 35.1011 11.7708C34.8336 11.7733 34.7136 11.6861 34.672 11.4012C34.5128 10.3257 34.0487 9.95357 32.8314 9.94942H32.8305ZM31.4832 18.0646C32.0815 18.0646 32.5922 18.0214 33.0497 17.7507C33.2855 17.6111 33.458 17.4135 33.4438 17.1145C33.4305 16.8163 33.2072 16.6926 32.9747 16.5896C32.5398 16.3969 32.0648 16.3562 31.6082 16.2457C30.5459 15.9883 29.4585 15.8271 28.4395 15.4002C27.5854 15.0423 26.8639 14.5423 26.3981 13.7159C26.2815 13.5091 26.3048 13.1271 26.0373 13.1295C25.844 13.1312 25.659 13.4202 25.4591 13.5656C25.2441 13.7217 25.2808 13.8338 25.4832 13.9659C26.1181 14.3828 26.4839 14.9924 26.6689 15.7092C26.7372 15.9741 26.8605 16.0713 27.128 16.0655C27.6821 16.0522 28.2379 16.0713 28.7919 16.0589C29.0886 16.0522 29.2077 16.1627 29.2269 16.4658C29.2727 17.1992 29.691 17.6593 30.3801 17.8752C30.7633 17.9957 31.1549 18.0945 31.4849 18.0654L31.4832 18.0646ZM19.1666 17.8254C19.1666 17.8254 19.1666 17.8229 19.1666 17.8221C19.6524 17.8221 20.1382 17.8287 20.6239 17.8204C21.003 17.8138 21.3696 17.7374 21.7004 17.543C22.1095 17.303 22.3445 16.8844 22.267 16.519C22.1637 16.0348 21.7529 15.975 21.3671 15.9293C20.1923 15.7906 19.0116 15.8579 17.8326 15.8471C17.5952 15.8446 17.4819 15.9542 17.4485 16.1859C17.3902 16.5962 17.3244 17.0057 17.2452 17.4126C17.1886 17.7017 17.2885 17.8304 17.5843 17.8271C18.1118 17.8213 18.6392 17.8254 19.1666 17.8254ZM20.2181 10.2808C20.2181 10.275 20.2181 10.2683 20.2181 10.2625C19.7882 10.2625 19.3583 10.2775 18.93 10.2575C18.58 10.2409 18.3876 10.3414 18.3551 10.7251C18.3226 11.1088 18.2409 11.4901 18.1601 11.8671C18.0843 12.2226 18.2218 12.3397 18.57 12.3331C19.3316 12.3181 20.094 12.3372 20.8564 12.3231C21.2747 12.3156 21.6846 12.2259 22.052 12.0158C22.512 11.7533 22.7336 11.2858 22.607 10.829C22.4837 10.3813 22.0804 10.3173 21.7129 10.2891C21.2172 10.2509 20.7164 10.28 20.2181 10.28V10.2808Z" fill="#00AEED"/>
<path d="M48.8859 22.9881C48.3652 23.3552 47.7694 23.5272 47.1928 23.7373C43.505 25.0828 39.7014 25.9839 35.8303 26.6026C32.829 27.0827 29.8086 27.3767 26.7665 27.493C24.5027 27.5794 22.2413 27.5744 19.9841 27.439C16.3055 27.2189 12.6677 26.7006 9.13983 25.5877C7.06762 24.9341 5.0704 24.1085 3.33564 22.7597C2.25662 21.9209 1.36175 20.9409 0.925142 19.6079C0.494369 18.2906 0.692674 17.0365 1.29342 15.8281C1.915 14.5773 2.85571 13.579 3.91222 12.6903C6.21024 10.7585 8.86653 9.44871 11.6311 8.3333C11.692 8.30839 11.7603 8.30257 11.8736 8.27682C11.8061 8.48197 11.6445 8.50771 11.5278 8.57416C9.87972 9.50519 8.30911 10.5475 6.9743 11.898C6.14191 12.7393 5.43368 13.677 5.02957 14.8115C4.32717 16.7815 4.82876 18.4908 6.18774 19.9891C7.52089 21.4591 9.22565 22.3852 11.0387 23.1235C14.7115 24.6193 18.5718 25.2705 22.4988 25.6342C25.1018 25.8759 27.7089 25.9199 30.3169 25.8527C33.4256 25.7721 36.5168 25.4739 39.5939 25.0122C42.6593 24.552 45.6764 23.8868 48.6526 23.0263C48.7276 23.0047 48.8076 22.9998 48.8851 22.9873L48.8859 22.9881Z" fill="#DA231D"/>
<path d="M16.9937 4.94548C17.2811 4.83087 17.5169 4.73204 17.756 4.64151C22.1788 2.97379 26.7556 1.92648 31.4308 1.27866C34.1404 0.903258 36.8625 0.702268 39.5963 0.598451C42.5576 0.487159 45.503 0.633333 48.4476 0.930666C51.6796 1.25707 54.8442 1.87748 57.8946 3.00535C59.966 3.77193 61.924 4.74533 63.4555 6.39643C64.6128 7.6439 65.1869 9.0907 64.8703 10.8066C64.6503 11.9976 64.0337 12.9959 63.2639 13.907C61.8266 15.6088 60.0043 16.8164 58.0771 17.8819C56.8014 18.5879 55.4791 19.1992 54.1218 19.734C53.9993 19.7822 53.871 19.8163 53.7219 19.7938C54.2534 19.4757 54.7909 19.1676 55.3158 18.8379C57.1139 17.71 58.7845 16.4393 59.9685 14.6345C61.4758 12.3381 61.2408 9.89466 59.3219 7.93459C57.8829 6.46537 56.1015 5.54679 54.2143 4.81011C51.3922 3.70798 48.4459 3.10667 45.4513 2.71134C42.141 2.27448 38.8139 2.13661 35.4811 2.23627C32.1649 2.3351 28.8628 2.63493 25.5841 3.16564C22.8553 3.60749 20.1557 4.17558 17.4986 4.93718C17.3628 4.97621 17.2211 5.06923 16.9937 4.94382V4.94548Z" fill="#005B49"/>
</svg>
