<svg width="18" height="19" viewBox="0 0 18 19" fill="none" xmlns="http://www.w3.org/2000/svg">
<path d="M6.49512 9.5896L6.49512 6.34601C6.49512 4.81425 7.73686 3.57251 9.26862 3.57251V3.57251C10.8004 3.57251 12.0421 4.81425 12.0421 6.34601L12.0421 9.5896" stroke="#F7F7F7" stroke-width="2" stroke-linecap="round"/>
<path d="M3.43788 11.0269C3.57249 9.27462 3.6398 8.3985 4.21491 7.86588C4.79002 7.33325 5.66872 7.33325 7.42613 7.33325H11.1112C12.8686 7.33325 13.7473 7.33325 14.3224 7.86588C14.8975 8.3985 14.9648 9.27462 15.0994 11.0269L15.3436 14.2057C15.4211 15.2138 15.4598 15.7179 15.1629 16.0384C14.8661 16.3589 14.3606 16.3589 13.3495 16.3589H5.1878C4.17672 16.3589 3.67118 16.3589 3.37434 16.0384C3.0775 15.7179 3.11623 15.2138 3.19367 14.2057L3.43788 11.0269Z" fill="#F7F7F7"/>
</svg>
