<svg width="19" height="19" viewBox="0 0 19 19" fill="none" xmlns="http://www.w3.org/2000/svg">
<path d="M1.5835 7.12501C1.5835 6.03634 1.5835 5.49201 1.78975 5.07377C1.98448 4.6789 2.30405 4.35932 2.69892 4.1646C3.11716 3.95834 3.6615 3.95834 4.75016 3.95834H14.2502C15.3388 3.95834 15.8832 3.95834 16.3014 4.1646C16.6963 4.35932 17.0158 4.6789 17.2106 5.07377C17.4168 5.49201 17.4168 6.03634 17.4168 7.12501C17.4168 7.39718 17.4168 7.53326 17.3653 7.63782C17.3166 7.73654 17.2367 7.81643 17.138 7.86511C17.0334 7.91668 16.8973 7.91668 16.6252 7.91668H2.37516C2.103 7.91668 1.96691 7.91668 1.86235 7.86511C1.76364 7.81643 1.68374 7.73654 1.63506 7.63782C1.5835 7.53326 1.5835 7.39718 1.5835 7.12501Z" fill="#040D12"/>
<path d="M1.5835 13.4167C1.5835 15.3023 1.5835 16.2451 2.16928 16.8309C2.75507 17.4167 3.69788 17.4167 5.5835 17.4167H13.4168C15.3024 17.4167 16.2453 17.4167 16.831 16.8309C17.4168 16.2451 17.4168 15.3023 17.4168 13.4167V10.5C17.4168 10.0286 17.4168 9.79288 17.2704 9.64644C17.1239 9.49999 16.8882 9.49999 16.4168 9.49999H2.5835C2.11209 9.49999 1.87639 9.49999 1.72994 9.64644C1.5835 9.79288 1.5835 10.0286 1.5835 10.5V13.4167Z" fill="#040D12"/>
<path d="M5.5415 2.375L5.5415 4.75" stroke="#040D12" stroke-width="2" stroke-linecap="round"/>
<path d="M13.4585 2.375L13.4585 4.75" stroke="#040D12" stroke-width="2" stroke-linecap="round"/>
</svg>
