<svg width="11" height="13" viewBox="0 0 11 13" fill="none" xmlns="http://www.w3.org/2000/svg">
<path fill-rule="evenodd" clip-rule="evenodd" d="M10.3915 0.618788V12.256C10.3915 12.64 9.97671 12.8806 9.64338 12.6902L8.28973 11.9167C7.9823 11.741 7.60488 11.741 7.29745 11.9167L5.98955 12.664C5.49766 12.9451 4.8938 12.9451 4.4019 12.664L3.094 11.9167C2.78657 11.741 2.40916 11.741 2.10172 11.9167L0.74807 12.6902C0.414742 12.8806 0 12.64 0 12.256V0.618787C0 0.234876 0.414741 -0.00580711 0.748069 0.184666L2.10172 0.958183C2.40916 1.13386 2.78657 1.13386 3.094 0.958183L4.4019 0.210811C4.8938 -0.0702701 5.49766 -0.0702706 5.98955 0.210811L7.29745 0.958183C7.60488 1.13386 7.98229 1.13386 8.28973 0.958183L9.64338 0.184667C9.97671 -0.00580657 10.3915 0.234877 10.3915 0.618788ZM3.34011 4.0818C3.06397 4.0818 2.84011 4.30566 2.84011 4.5818C2.84011 4.85794 3.06397 5.0818 3.34011 5.0818H7.05134C7.32748 5.0818 7.55134 4.85794 7.55134 4.5818C7.55134 4.30566 7.32748 4.0818 7.05134 4.0818H3.34011ZM3.34011 5.93742C3.06397 5.93742 2.84011 6.16127 2.84011 6.43742C2.84011 6.71356 3.06397 6.93742 3.34011 6.93742H7.05134C7.32748 6.93742 7.55134 6.71356 7.55134 6.43742C7.55134 6.16127 7.32748 5.93742 7.05134 5.93742H3.34011ZM3.34011 7.79303C3.06397 7.79303 2.84011 8.01689 2.84011 8.29303C2.84011 8.56917 3.06397 8.79303 3.34011 8.79303H7.05134C7.32748 8.79303 7.55134 8.56917 7.55134 8.29303C7.55134 8.01689 7.32748 7.79303 7.05134 7.79303H3.34011Z" fill="#040D12"/>
</svg>
