<svg width="33" height="33" viewBox="0 0 33 33" fill="none" xmlns="http://www.w3.org/2000/svg">
<circle cx="16.5" cy="16.5" r="16.5" fill="#F78764"/>
<path d="M7.48125 16.192C7.48125 14.976 7.71325 13.824 8.17725 12.736C8.64125 11.648 9.28125 10.688 10.0973 9.856C10.9293 9.008 11.8893 8.344 12.9773 7.864C14.0653 7.384 15.2333 7.144 16.4813 7.144C17.7133 7.144 18.8733 7.384 19.9613 7.864C21.0493 8.344 22.0093 9.008 22.8413 9.856C23.6893 10.688 24.3453 11.648 24.8093 12.736C25.2893 13.824 25.5293 14.976 25.5293 16.192C25.5293 17.44 25.2893 18.608 24.8093 19.696C24.3453 20.784 23.6893 21.744 22.8413 22.576C22.0093 23.392 21.0493 24.032 19.9613 24.496C18.8733 24.96 17.7133 25.192 16.4813 25.192C15.2333 25.192 14.0653 24.96 12.9773 24.496C11.8893 24.032 10.9293 23.392 10.0973 22.576C9.28125 21.744 8.64125 20.784 8.17725 19.696C7.71325 18.608 7.48125 17.44 7.48125 16.192ZM11.0813 16.192C11.0813 16.976 11.2173 17.712 11.4893 18.4C11.7773 19.072 12.1693 19.672 12.6653 20.2C13.1773 20.712 13.7613 21.112 14.4173 21.4C15.0893 21.688 15.8173 21.832 16.6013 21.832C17.3533 21.832 18.0493 21.688 18.6893 21.4C19.3453 21.112 19.9133 20.712 20.3932 20.2C20.8733 19.672 21.2493 19.072 21.5213 18.4C21.7933 17.712 21.9293 16.976 21.9293 16.192C21.9293 15.392 21.7853 14.648 21.4973 13.96C21.2253 13.272 20.8413 12.672 20.3453 12.16C19.8653 11.632 19.2973 11.224 18.6413 10.936C17.9853 10.648 17.2733 10.504 16.5053 10.504C15.7373 10.504 15.0253 10.648 14.3693 10.936C13.7133 11.224 13.1373 11.632 12.6413 12.16C12.1453 12.672 11.7613 13.272 11.4893 13.96C11.2173 14.648 11.0813 15.392 11.0813 16.192Z" fill="#F8F9FA"/>
</svg>
