<svg width="16" height="13" viewBox="0 0 16 13" fill="none" xmlns="http://www.w3.org/2000/svg">
<path fill-rule="evenodd" clip-rule="evenodd" d="M5.64037 6.38477L5.14918 6.25738L5.14917 6.25738C2.1617 5.48257 0.667969 5.09516 0.667969 4.32143C0.667969 3.5477 2.1617 3.16029 5.14918 2.38548L12.0931 0.58456C13.8105 0.139141 14.6692 -0.0835689 15.0754 0.38911C15.4816 0.861789 15.1322 1.67723 14.4335 3.30811L11.7591 9.55069C10.9732 11.3852 10.5802 12.3025 9.92073 12.3025C9.26124 12.3025 8.86827 11.3852 8.08234 9.55069L7.26883 7.65181L11.5545 4.31731C11.9904 3.97816 12.0688 3.34987 11.7296 2.91398C11.3905 2.4781 10.7622 2.39967 10.3263 2.73882L5.64037 6.38477Z" fill="#F7F7F7"/>
</svg>
