<svg width="22" height="22" viewBox="0 0 22 22" fill="none" xmlns="http://www.w3.org/2000/svg">
<path d="M9.21631 13.6759L9.21631 11" stroke="#33363F" stroke-width="2" stroke-linecap="round"/>
<path d="M12.7842 13.6759L12.7842 11" stroke="#33363F" stroke-width="2" stroke-linecap="round"/>
<path d="M2.97217 6.54012H19.0277V6.54012C18.3991 6.54012 18.0848 6.54012 17.8271 6.61017C17.1426 6.79625 16.6079 7.33097 16.4218 8.01546C16.3518 8.27312 16.3518 8.58743 16.3518 9.21605V14.1358C16.3518 16.0214 16.3518 16.9642 15.766 17.55C15.1802 18.1358 14.2374 18.1358 12.3518 18.1358H9.64809C7.76248 18.1358 6.81967 18.1358 6.23388 17.55C5.64809 16.9642 5.64809 16.0214 5.64809 14.1358V9.21605C5.64809 8.58743 5.64809 8.27312 5.57805 8.01546C5.39197 7.33097 4.85725 6.79625 4.17275 6.61017C3.9151 6.54012 3.60079 6.54012 2.97217 6.54012V6.54012Z" stroke="#33363F" stroke-width="2" stroke-linecap="round"/>
<path d="M9.27707 3.30278C9.37871 3.20795 9.60267 3.12415 9.91423 3.06438C10.2258 3.00462 10.6075 2.97222 11.0002 2.97222C11.3929 2.97222 11.7747 3.00462 12.0862 3.06438C12.3978 3.12415 12.6218 3.20795 12.7234 3.30278" stroke="#33363F" stroke-width="2" stroke-linecap="round"/>
</svg>
