<svg width="78" height="78" viewBox="0 0 78 78" fill="none" xmlns="http://www.w3.org/2000/svg">
<path d="M27 31L42.2581 42.4436C42.6766 42.7574 43.2662 42.6958 43.6107 42.3021L71 11M75 39C75 46.522 72.6439 53.855 68.2625 59.9692C63.8811 66.0834 57.6946 70.6716 50.5718 73.0895C43.4491 75.5073 35.7478 75.6334 28.5498 73.4499C21.3517 71.2663 15.0184 66.883 10.4393 60.9154C5.86021 54.9478 3.26539 47.6958 3.01928 40.1779C2.77317 32.66 4.88812 25.2538 9.0671 18.9995C13.2461 12.7452 19.2792 7.95701 26.319 5.30739C33.3589 2.65778 41.0518 2.27985 48.3175 4.22668" stroke="#F78764" stroke-width="6" stroke-linecap="round"/>
</svg>
