<svg width="72" height="72" viewBox="0 0 72 72" fill="none" xmlns="http://www.w3.org/2000/svg">
<path d="M13.5039 54.3359C12.5848 55.7145 12.9573 57.5771 14.3359 58.4962C15.7145 59.4152 17.5771 59.0427 18.4962 57.6641L31.6286 37.9654L36.5461 47.8004C37.9196 50.5474 41.7484 50.7858 43.452 48.2303L58.4962 25.6641C59.4152 24.2855 59.0427 22.4229 57.6641 21.5038C56.2855 20.5848 54.4229 20.9573 53.5038 22.3359L40.3714 42.0346L35.4539 32.1996C34.0804 29.4526 30.2516 29.2142 28.548 31.7697L13.5039 54.3359ZM4 3H68C68.3963 3 68.7176 3.00013 68.9954 3.00461C68.9999 3.28243 69 3.60368 69 4V68C69 68.3963 68.9999 68.7176 68.9954 68.9954C68.7176 68.9999 68.3963 69 68 69H4C3.60369 69 3.28243 68.9999 3.00461 68.9954C3.00013 68.7176 3 68.3963 3 68V4C3 3.60368 3.00013 3.28243 3.00461 3.00461C3.28243 3.00013 3.60368 3 4 3Z" stroke="#F78764" stroke-width="6" stroke-linecap="round" stroke-linejoin="round"/>
</svg>
