<svg width="70" height="78" viewBox="0 0 70 78" fill="none" xmlns="http://www.w3.org/2000/svg">
<path d="M19 23L19 19C19 10.1634 26.1634 3 35 3C43.8366 3 51 10.1634 51 19L51 23M47 47V39M23 47V39M11 75H59C62.7712 75 64.6569 75 65.8284 73.8284C67 72.6569 67 70.7712 67 67V27C67 25.1144 67 24.1716 66.4142 23.5858C65.8284 23 64.8856 23 63 23H7C5.11438 23 4.17157 23 3.58579 23.5858C3 24.1716 3 25.1144 3 27V67C3 70.7712 3 72.6569 4.17157 73.8284C5.34315 75 7.22876 75 11 75Z" stroke="#F78764" stroke-width="6" stroke-linecap="round"/>
</svg>
